<svg xmlns="http://www.w3.org/2000/svg" width="1440" height="5330" viewBox="0 0 1440 5330">
    <g fill="none" fill-rule="nonzero" transform="translate(-199)">
        <g transform="translate(78)">
            <circle cx="1582.5" cy="723.5" r="93.5" fill="#EB5B49"/>
            <circle cx="93.5" cy="1569.5" r="93.5" fill="#EB5B49"/>
            <circle cx="1582.5" cy="4198.5" r="75.5" fill="#283583"/>
            <circle cx="287" cy="761" r="18" fill="#283583"/>
            <circle cx="1395" cy="839" r="14" fill="#000"/>
            <circle cx="1395" cy="14" r="14" fill="#EB5B49"/>
            <circle cx="1297" cy="1527" r="14" fill="#EB5B49"/>
            <circle cx="387" cy="1706" r="21" fill="#283583"/>
            <circle cx="1296.5" cy="2805.5" r="14.5" fill="#EB5B49"/>
            <circle cx="1296.5" cy="4467.5" r="14.5" fill="#000"/>
            <circle cx="1425.5" cy="5251.5" r="14.5" fill="#EB5B49"/>
            <circle cx="283.5" cy="5315.5" r="14.5" fill="#000"/>
            <circle cx="326.5" cy="4328.5" r="8.5" fill="#283583"/>
        </g>
        <g transform="translate(1487 4662)">
            <rect width="293" height="47" x="-26.292" y="217.708" fill="#EB5B49" rx="21" transform="rotate(-45 120.208 241.208)"/>
            <path fill="#283583" d="M146.85 302.333l74.098-74.099c8.201-8.201 21.498-8.201 29.699 0l3.535 3.536c8.201 8.2 8.201 21.497 0 29.698l-74.099 74.1c-8.2 8.2-21.497 8.2-29.698 0l-3.536-3.536c-8.2-8.201-8.2-21.498 0-29.699z"/>
            <circle cx="62.5" cy="385.5" r="24.5" fill="#283583"/>
            <circle cx="63" cy="176" r="13" fill="#000"/>
            <path fill="#EB5B49" d="M99.85 109.948l74.098-74.099c8.201-8.2 21.498-8.2 29.699 0l3.535 3.536c8.201 8.2 8.201 21.497 0 29.698l-74.099 74.1c-8.2 8.2-21.497 8.2-29.698 0l-3.536-3.536c-8.2-8.201-8.2-21.498 0-29.699z"/>
        </g>
        <g transform="translate(1465 1634)">
            <rect width="293" height="47" x="-26.292" y="217.708" fill="#EB5B49" rx="21" transform="rotate(-45 120.208 241.208)"/>
            <path fill="#283583" d="M146.85 302.333l74.098-74.099c8.201-8.201 21.498-8.201 29.699 0l3.535 3.536c8.201 8.2 8.201 21.497 0 29.698l-74.099 74.1c-8.2 8.2-21.497 8.2-29.698 0l-3.536-3.536c-8.2-8.201-8.2-21.498 0-29.699z"/>
            <circle cx="62.5" cy="385.5" r="24.5" fill="#283583"/>
            <circle cx="63" cy="176" r="13" fill="#000"/>
            <path fill="#EB5B49" d="M99.85 109.948l74.098-74.099c8.201-8.2 21.498-8.2 29.699 0l3.535 3.536c8.201 8.2 8.201 21.497 0 29.698l-74.099 74.1c-8.2 8.2-21.497 8.2-29.698 0l-3.536-3.536c-8.2-8.201-8.2-21.498 0-29.699z"/>
        </g>
        <g transform="translate(0 3122)">
            <rect width="293" height="47" x="-26.292" y="217.708" fill="#EB5B49" rx="21" transform="rotate(-45 120.208 241.208)"/>
            <path fill="#283583" d="M146.85 302.333l74.098-74.099c8.201-8.201 21.498-8.201 29.699 0l3.535 3.536c8.201 8.2 8.201 21.497 0 29.698l-74.099 74.1c-8.2 8.2-21.497 8.2-29.698 0l-3.536-3.536c-8.2-8.201-8.2-21.498 0-29.699z"/>
            <path fill="#000" d="M267.85 95.302l31.027-31.028c8.201-8.201 21.498-8.201 29.699 0l3.535 3.535c8.201 8.201 8.201 21.498 0 29.699l-31.028 31.028c-8.2 8.2-21.497 8.2-29.698 0L267.849 125c-8.2-8.201-8.2-21.497 0-29.698z"/>
            <circle cx="309.5" cy="188.5" r="24.5" fill="#283583"/>
            <circle cx="258" cy="13" r="13" fill="#000"/>
            <path fill="#EB5B49" d="M99.85 109.948l74.098-74.099c8.201-8.2 21.498-8.2 29.699 0l3.535 3.536c8.201 8.2 8.201 21.497 0 29.698l-74.099 74.1c-8.2 8.2-21.497 8.2-29.698 0l-3.536-3.536c-8.2-8.201-8.2-21.498 0-29.699z"/>
        </g>
        <circle cx="171.5" cy="270.5" r="93.5" fill="#283583"/>
    </g>
</svg>
